<?xml version="1.0" encoding="UTF-8"?>
<svg width="171px" height="17px" viewBox="0 0 171 17" version="1.1" xmlns="http://www.w3.org/2000/svg" xmlns:xlink="http://www.w3.org/1999/xlink">
    <!-- Generator: Sketch 47.1 (45422) - http://www.bohemiancoding.com/sketch -->
    <title>mail</title>
    <desc>Created with Sketch.</desc>
    <defs></defs>
    <g id="Page-1" stroke="none" stroke-width="1" fill="none" fill-rule="evenodd">
        <g id="Artboard" fill="#FFFFFF">
            <path d="M7.16015625,13 L0.92578125,13 L0.92578125,12.5859375 L5.28515625,5.9296875 L4.20703125,5.9296875 C3.75390398,5.9296875 3.39974086,5.93749992 3.14453125,5.953125 C2.88932164,5.96875008 2.65494898,6.02083289 2.44140625,6.109375 C2.29557219,6.16666695 2.1588548,6.33072781 2.03125,6.6015625 C1.9036452,6.87239719 1.79296922,7.22656031 1.69921875,7.6640625 L1.22265625,7.6640625 L1.22265625,5.296875 L7.11328125,5.296875 L7.11328125,5.6171875 L2.68359375,12.3671875 C2.87109469,12.3723959 3.0768218,12.3763021 3.30078125,12.3789062 C3.5247407,12.3815104 3.76692578,12.3828125 4.02734375,12.3828125 C4.23567813,12.3828125 4.45312387,12.3802084 4.6796875,12.375 C4.90625113,12.3697916 5.19661281,12.3567709 5.55078125,12.3359375 C5.75911563,12.3255208 5.91666613,12.255209 6.0234375,12.125 C6.13020887,11.994791 6.2122393,11.846355 6.26953125,11.6796875 C6.3268232,11.5286451 6.39583293,11.3203138 6.4765625,11.0546875 C6.55729207,10.7890612 6.62890594,10.5312513 6.69140625,10.28125 L7.16015625,10.28125 L7.16015625,13 Z M17.7070312,12.859375 C17.4622384,12.9479171 17.2473968,13.019531 17.0625,13.0742187 C16.8776032,13.1289065 16.6679699,13.15625 16.4335938,13.15625 C16.0273417,13.15625 15.7031262,13.0611989 15.4609375,12.8710937 C15.2187488,12.6809886 15.0638024,12.4036477 14.9960938,12.0390625 L14.9492188,12.0390625 C14.6106754,12.4140644 14.2473978,12.7005198 13.859375,12.8984375 C13.4713522,13.0963552 13.003909,13.1953125 12.4570312,13.1953125 C11.8789034,13.1953125 11.4036477,13.0182309 11.03125,12.6640625 C10.6588523,12.3098941 10.4726562,11.846357 10.4726562,11.2734375 C10.4726562,10.976561 10.5143225,10.7109387 10.5976562,10.4765625 C10.68099,10.2421863 10.8059887,10.0312509 10.9726562,9.84375 C11.1028652,9.68749922 11.2747385,9.5481777 11.4882812,9.42578125 C11.701824,9.3033848 11.9023428,9.20572953 12.0898438,9.1328125 C12.3242199,9.04427039 12.7994756,8.88020953 13.515625,8.640625 C14.2317744,8.40104047 14.7148425,8.21354234 14.9648438,8.078125 L14.9648438,7.3046875 C14.9648438,7.23697883 14.950521,7.1067718 14.921875,6.9140625 C14.893229,6.7213532 14.8320317,6.53906336 14.7382812,6.3671875 C14.6341141,6.1744782 14.4869801,6.00651113 14.296875,5.86328125 C14.1067699,5.72005137 13.8372413,5.6484375 13.4882812,5.6484375 C13.2486967,5.6484375 13.0260427,5.68880168 12.8203125,5.76953125 C12.6145823,5.85026082 12.4700525,5.93489539 12.3867188,6.0234375 C12.3867188,6.12760469 12.4114581,6.28124898 12.4609375,6.484375 C12.5104169,6.68750102 12.5351562,6.87499914 12.5351562,7.046875 C12.5351562,7.22916758 12.4531258,7.39583258 12.2890625,7.546875 C12.1249992,7.69791742 11.8971369,7.7734375 11.6054688,7.7734375 C11.3450508,7.7734375 11.1536464,7.68099051 11.03125,7.49609375 C10.9088536,7.31119699 10.8476562,7.10416781 10.8476562,6.875 C10.8476562,6.63541547 10.9322908,6.40625109 11.1015625,6.1875 C11.2708342,5.96874891 11.4908841,5.77343836 11.7617188,5.6015625 C11.9960949,5.45572844 12.2799462,5.33203176 12.6132812,5.23046875 C12.9466163,5.12890574 13.2721338,5.078125 13.5898438,5.078125 C14.0273459,5.078125 14.4088525,5.10807262 14.734375,5.16796875 C15.0598975,5.22786488 15.3554674,5.35676984 15.6210938,5.5546875 C15.8867201,5.7473968 16.088541,6.00911293 16.2265625,6.33984375 C16.364584,6.67057457 16.4335938,7.09635156 16.4335938,7.6171875 C16.4335938,8.36198289 16.4257813,9.02213254 16.4101562,9.59765625 C16.3945312,10.17318 16.3867188,10.8020799 16.3867188,11.484375 C16.3867188,11.687501 16.4218746,11.8489577 16.4921875,11.96875 C16.5625004,12.0885423 16.6705722,12.1901037 16.8164062,12.2734375 C16.8945316,12.3203127 17.0182283,12.3463541 17.1875,12.3515625 C17.3567717,12.3567709 17.529947,12.359375 17.7070312,12.359375 L17.7070312,12.859375 Z M14.9804688,8.734375 C14.5377582,8.86458398 14.1497412,8.99218687 13.8164062,9.1171875 C13.4830713,9.24218813 13.1731785,9.39843656 12.8867188,9.5859375 C12.6263008,9.76302172 12.4205737,9.97265504 12.2695312,10.2148438 C12.1184888,10.4570325 12.0429688,10.74479 12.0429688,11.078125 C12.0429688,11.5104188 12.1562489,11.828124 12.3828125,12.03125 C12.6093761,12.234376 12.8971337,12.3359375 13.2460938,12.3359375 C13.6158873,12.3359375 13.9414048,12.2460946 14.2226562,12.0664062 C14.5039077,11.8867179 14.7408845,11.6744804 14.9335938,11.4296875 L14.9804688,8.734375 Z M28.8867188,13 L26.5585938,13 C26.1523417,12.4114554 25.7174502,11.7812534 25.2539062,11.109375 C24.7903623,10.4374966 24.3085963,9.78385734 23.8085938,9.1484375 L23.1679688,9.75 L23.1679688,11.578125 C23.1679688,11.7656259 23.2018226,11.9205723 23.2695312,12.0429687 C23.3372399,12.1653652 23.4466138,12.255208 23.5976562,12.3125 C23.7226569,12.3645836 23.8424473,12.4036457 23.9570312,12.4296875 C24.0716152,12.4557293 24.2044263,12.4739583 24.3554688,12.484375 L24.3554688,13 L20.5742188,13 L20.5742188,12.484375 C20.694011,12.4739583 20.8190098,12.4622396 20.9492188,12.4492187 C21.0794277,12.4361979 21.1888016,12.4166668 21.2773438,12.390625 C21.4231778,12.3437498 21.5325517,12.2617193 21.6054688,12.1445312 C21.6783858,12.0273432 21.7148438,11.8750009 21.7148438,11.6875 L21.7148438,2.734375 C21.7148438,2.5416657 21.6744796,2.36067793 21.59375,2.19140625 C21.5130204,2.02213457 21.4075527,1.89322961 21.2773438,1.8046875 C21.1679682,1.72135375 20.997397,1.6666668 20.765625,1.640625 C20.533853,1.6145832 20.347657,1.59635422 20.2070312,1.5859375 L20.2070312,1.0859375 L23.0585938,0.90625 L23.1679688,1.0234375 L23.1679688,9.171875 C23.5742208,8.76562297 24.0130185,8.32942941 24.484375,7.86328125 C24.9557315,7.39713309 25.352863,6.98177266 25.6757812,6.6171875 C25.7174481,6.57031227 25.7630206,6.50911496 25.8125,6.43359375 C25.8619794,6.35807254 25.8867188,6.29687523 25.8867188,6.25 C25.8867188,6.1093743 25.7734386,6.00520867 25.546875,5.9375 C25.3203114,5.86979133 25.1028656,5.8229168 24.8945312,5.796875 L24.8945312,5.296875 L28.2851562,5.296875 L28.2851562,5.78125 C27.8476541,5.91145898 27.4609392,6.07421777 27.125,6.26953125 C26.7890608,6.46484473 26.532553,6.64062422 26.3554688,6.796875 C26.2304681,6.90104219 26.0533866,7.07031133 25.8242188,7.3046875 C25.5950509,7.53906367 25.2747416,7.84635227 24.8632812,8.2265625 C25.2903667,8.7526068 25.7708307,9.38280883 26.3046875,10.1171875 C26.8385443,10.8515662 27.2278634,11.3828109 27.4726562,11.7109375 C27.7018241,12.0182307 27.9075512,12.2187495 28.0898438,12.3125 C28.2721363,12.4062505 28.5377587,12.4635416 28.8867188,12.484375 L28.8867188,13 Z M35.2851563,13 L31.5585938,13 L31.5585938,12.484375 C31.678386,12.4739583 31.8020827,12.4635417 31.9296875,12.453125 C32.0572923,12.4427083 32.1679683,12.4218752 32.2617188,12.390625 C32.4075528,12.3437498 32.5156246,12.2617193 32.5859375,12.1445312 C32.6562504,12.0273432 32.6914063,11.8750009 32.6914063,11.6875 L32.6914063,6.9296875 C32.6914063,6.76302 32.6536462,6.61067777 32.578125,6.47265625 C32.5026038,6.33463473 32.3971361,6.21875047 32.2617188,6.125 C32.1627599,6.06249969 32.0195322,6.0091148 31.8320313,5.96484375 C31.6445303,5.9205727 31.472657,5.89322922 31.3164063,5.8828125 L31.3164063,5.375 L34.0351563,5.203125 L34.1445313,5.3125 L34.1445313,11.59375 C34.1445313,11.7760426 34.1796871,11.9270827 34.25,12.046875 C34.3203129,12.1666673 34.4309888,12.255208 34.5820313,12.3125 C34.6966152,12.3593752 34.8085932,12.3971353 34.9179688,12.4257812 C35.0273443,12.4544272 35.1497389,12.4739583 35.2851563,12.484375 L35.2851563,13 Z M34.3007812,2.1640625 C34.3007812,2.46093898 34.203126,2.72005098 34.0078125,2.94140625 C33.812499,3.16276152 33.571616,3.2734375 33.2851562,3.2734375 C33.0195299,3.2734375 32.7890635,3.1679698 32.59375,2.95703125 C32.3984365,2.7460927 32.3007812,2.50520969 32.3007812,2.234375 C32.3007812,1.94791523 32.3984365,1.69791773 32.59375,1.484375 C32.7890635,1.27083227 33.0195299,1.1640625 33.2851562,1.1640625 C33.5820327,1.1640625 33.8255199,1.26432191 34.015625,1.46484375 C34.2057301,1.66536559 34.3007812,1.89843617 34.3007812,2.1640625 Z M49.9570312,5.796875 C49.7382802,5.81770844 49.5026054,5.90885336 49.25,6.0703125 C48.9973946,6.23177164 48.8138027,6.47395672 48.6992188,6.796875 C48.4388008,7.56250383 48.1927095,8.28775699 47.9609375,8.97265625 C47.7291655,9.65755551 47.4700535,10.4270791 47.1835938,11.28125 C47.0898433,11.5520847 46.9947921,11.8437484 46.8984375,12.15625 C46.8020829,12.4687516 46.7148441,12.7682277 46.6367188,13.0546875 L45.9648438,13.0546875 L43.8945312,7.3828125 L41.8085938,13.0546875 L41.1679688,13.0546875 C40.7773418,11.8984317 40.3958352,10.7513078 40.0234375,9.61328125 C39.6510398,8.47525473 39.321616,7.48437922 39.0351562,6.640625 C38.9518225,6.39583211 38.7929699,6.2031257 38.5585938,6.0625 C38.3242176,5.9218743 38.0976573,5.8385418 37.8789062,5.8125 L37.8789062,5.296875 L41.3164062,5.296875 L41.3164062,5.84375 C41.1445304,5.84895836 40.9583343,5.87760391 40.7578125,5.9296875 C40.5572907,5.98177109 40.4570312,6.06770773 40.4570312,6.1875 C40.4570312,6.20833344 40.4661457,6.25260383 40.484375,6.3203125 C40.5026043,6.38802117 40.5247395,6.46093711 40.5507812,6.5390625 C40.7174488,7.08594023 40.9062489,7.69661121 41.1171875,8.37109375 C41.3281261,9.04557629 41.6002588,9.92186961 41.9335938,11 L43.9023438,5.453125 L44.6523438,5.453125 L46.6601562,10.921875 C46.8841157,10.2239548 47.1067697,9.54818035 47.328125,8.89453125 C47.5494803,8.24088215 47.7434887,7.62760703 47.9101562,7.0546875 C47.9466148,6.91927016 47.9817707,6.79557348 48.015625,6.68359375 C48.0494793,6.57161402 48.0664062,6.46093805 48.0664062,6.3515625 C48.0664062,6.25781203 48.02474,6.17447953 47.9414062,6.1015625 C47.8580725,6.02864547 47.756511,5.96875023 47.6367188,5.921875 C47.5325516,5.88020812 47.4192714,5.84895844 47.296875,5.828125 C47.1744786,5.80729156 47.0846357,5.796875 47.0273438,5.796875 L47.0273438,5.296875 L49.9570312,5.296875 L49.9570312,5.796875 Z M59.8242188,12.859375 C59.5794259,12.9479171 59.3645843,13.019531 59.1796875,13.0742187 C58.9947907,13.1289065 58.7851574,13.15625 58.5507813,13.15625 C58.1445292,13.15625 57.8203137,13.0611989 57.578125,12.8710937 C57.3359363,12.6809886 57.1809899,12.4036477 57.1132813,12.0390625 L57.0664063,12.0390625 C56.7278629,12.4140644 56.3645853,12.7005198 55.9765625,12.8984375 C55.5885397,13.0963552 55.1210965,13.1953125 54.5742188,13.1953125 C53.9960909,13.1953125 53.5208352,13.0182309 53.1484375,12.6640625 C52.7760398,12.3098941 52.5898438,11.846357 52.5898438,11.2734375 C52.5898438,10.976561 52.63151,10.7109387 52.7148438,10.4765625 C52.7981775,10.2421863 52.9231763,10.0312509 53.0898438,9.84375 C53.2200527,9.68749922 53.391926,9.5481777 53.6054688,9.42578125 C53.8190115,9.3033848 54.0195303,9.20572953 54.2070313,9.1328125 C54.4414074,9.04427039 54.9166631,8.88020953 55.6328125,8.640625 C56.3489619,8.40104047 56.83203,8.21354234 57.0820313,8.078125 L57.0820313,7.3046875 C57.0820313,7.23697883 57.0677085,7.1067718 57.0390625,6.9140625 C57.0104165,6.7213532 56.9492192,6.53906336 56.8554688,6.3671875 C56.7513016,6.1744782 56.6041676,6.00651113 56.4140625,5.86328125 C56.2239574,5.72005137 55.9544288,5.6484375 55.6054688,5.6484375 C55.3658842,5.6484375 55.1432302,5.68880168 54.9375,5.76953125 C54.7317698,5.85026082 54.58724,5.93489539 54.5039063,6.0234375 C54.5039063,6.12760469 54.5286456,6.28124898 54.578125,6.484375 C54.6276044,6.68750102 54.6523438,6.87499914 54.6523438,7.046875 C54.6523438,7.22916758 54.5703133,7.39583258 54.40625,7.546875 C54.2421867,7.69791742 54.0143244,7.7734375 53.7226563,7.7734375 C53.4622383,7.7734375 53.2708339,7.68099051 53.1484375,7.49609375 C53.0260411,7.31119699 52.9648438,7.10416781 52.9648438,6.875 C52.9648438,6.63541547 53.0494783,6.40625109 53.21875,6.1875 C53.3880217,5.96874891 53.6080716,5.77343836 53.8789063,5.6015625 C54.1132824,5.45572844 54.3971338,5.33203176 54.7304688,5.23046875 C55.0638038,5.12890574 55.3893213,5.078125 55.7070313,5.078125 C56.1445334,5.078125 56.52604,5.10807262 56.8515625,5.16796875 C57.177085,5.22786488 57.4726549,5.35676984 57.7382813,5.5546875 C58.0039076,5.7473968 58.2057285,6.00911293 58.34375,6.33984375 C58.4817715,6.67057457 58.5507813,7.09635156 58.5507813,7.6171875 C58.5507813,8.36198289 58.5429688,9.02213254 58.5273438,9.59765625 C58.5117187,10.17318 58.5039063,10.8020799 58.5039063,11.484375 C58.5039063,11.687501 58.5390621,11.8489577 58.609375,11.96875 C58.6796879,12.0885423 58.7877597,12.1901037 58.9335938,12.2734375 C59.0117191,12.3203127 59.1354158,12.3463541 59.3046875,12.3515625 C59.4739592,12.3567709 59.6471345,12.359375 59.8242188,12.359375 L59.8242188,12.859375 Z M57.0976563,8.734375 C56.6549457,8.86458398 56.2669288,8.99218687 55.9335938,9.1171875 C55.6002588,9.24218813 55.290366,9.39843656 55.0039063,9.5859375 C54.7434883,9.76302172 54.5377612,9.97265504 54.3867188,10.2148438 C54.2356763,10.4570325 54.1601563,10.74479 54.1601563,11.078125 C54.1601563,11.5104188 54.2734364,11.828124 54.5,12.03125 C54.7265636,12.234376 55.0143212,12.3359375 55.3632813,12.3359375 C55.7330748,12.3359375 56.0585923,12.2460946 56.3398438,12.0664062 C56.6210952,11.8867179 56.858072,11.6744804 57.0507813,11.4296875 L57.0976563,8.734375 Z M74.2304688,13.9296875 C73.7096328,14.3828148 73.0911494,14.7486965 72.375,15.0273438 C71.6588506,15.305991 70.8606815,15.4453125 69.9804688,15.4453125 C69.1940065,15.4453125 68.4205767,15.3190117 67.6601563,15.0664062 C66.8997358,14.8138008 66.2148468,14.4296901 65.6054688,13.9140625 C65.0012991,13.3984349 64.5143248,12.7565143 64.1445313,11.9882812 C63.7747377,11.2200482 63.5898438,10.3151094 63.5898438,9.2734375 C63.5898438,8.38280805 63.7565088,7.51823336 64.0898438,6.6796875 C64.4231788,5.84114164 64.8997365,5.09375328 65.5195313,4.4375 C66.1184926,3.7968718 66.8593706,3.27994988 67.7421875,2.88671875 C68.6250044,2.49348762 69.5872344,2.296875 70.6289063,2.296875 C71.5299524,2.296875 72.3111946,2.4414048 72.9726563,2.73046875 C73.6341179,3.0195327 74.1757791,3.4010393 74.5976563,3.875 C75.0195334,4.34375234 75.3359364,4.88280945 75.546875,5.4921875 C75.7578136,6.10156555 75.8632813,6.73697586 75.8632813,7.3984375 C75.8632813,8.66927719 75.5143264,9.7434852 74.8164063,10.6210938 C74.1184861,11.4987023 73.2356824,11.9375 72.1679688,11.9375 C71.7252582,11.9375 71.350262,11.826824 71.0429688,11.6054688 C70.7356755,11.3841135 70.5638023,11.0729187 70.5273438,10.671875 L70.4726563,10.65625 C70.222655,11.0364602 69.9375016,11.3398426 69.6171875,11.5664062 C69.2968734,11.7929699 68.9726579,11.90625 68.6445313,11.90625 C68.4309885,11.90625 68.2135428,11.8710941 67.9921875,11.8007812 C67.7708322,11.7304684 67.5742196,11.6145841 67.4023438,11.453125 C67.2304679,11.2812491 67.0937505,11.057293 66.9921875,10.78125 C66.8906245,10.505207 66.8398438,10.1640645 66.8398438,9.7578125 C66.8398438,9.37760227 66.9270825,8.95182527 67.1015625,8.48046875 C67.2760425,8.00911223 67.5117173,7.55989797 67.8085938,7.1328125 C68.1054702,6.70051867 68.489581,6.32552242 68.9609375,6.0078125 C69.432294,5.69010258 69.9414035,5.53125 70.4882813,5.53125 C70.7799494,5.53125 71.0390614,5.61328043 71.265625,5.77734375 C71.4921886,5.94140707 71.6315102,6.18229008 71.6835938,6.5 L71.7304688,6.5 L72.0664063,5.625 L73.2304688,5.625 L71.7539063,9.828125 C71.707031,9.95833398 71.669271,10.1080721 71.640625,10.2773438 C71.611979,10.4466154 71.5976563,10.5807287 71.5976563,10.6796875 C71.5976563,10.9453138 71.6653639,11.1393223 71.8007813,11.2617188 C71.9361986,11.3841152 72.110676,11.4453125 72.3242188,11.4453125 C73.1315145,11.4453125 73.8059869,11.06641 74.3476563,10.3085938 C74.8893256,9.55077746 75.1601563,8.55208953 75.1601563,7.3125 C75.1601563,6.69791359 75.063803,6.12890887 74.8710938,5.60546875 C74.6783845,5.08202863 74.3841166,4.61979367 73.9882813,4.21875 C73.608071,3.82291469 73.1289091,3.51041781 72.5507813,3.28125 C71.9726534,3.05208219 71.3112016,2.9375 70.5664063,2.9375 C69.8580694,2.9375 69.1679721,3.07551945 68.4960938,3.3515625 C67.8242154,3.62760555 67.2122423,4.03385148 66.6601563,4.5703125 C66.1236952,5.09114844 65.6888038,5.73957945 65.3554688,6.515625 C65.0221338,7.29167055 64.8554688,8.16926594 64.8554688,9.1484375 C64.8554688,10.0911505 64.9856758,10.9205693 65.2460938,11.6367188 C65.5065117,12.3528682 65.8736955,12.9531226 66.3476563,13.4375 C66.8112002,13.9062523 67.3580698,14.2578113 67.9882813,14.4921875 C68.6184927,14.7265637 69.3007776,14.84375 70.0351563,14.84375 C70.8632854,14.84375 71.6002572,14.731772 72.2460938,14.5078125 C72.8919303,14.283853 73.4726537,13.9583355 73.9882813,13.53125 L74.2304688,13.9296875 Z M71.5117188,7.203125 C71.4388017,6.78124789 71.3216154,6.4739593 71.1601562,6.28125 C70.9986971,6.0885407 70.7617203,5.9921875 70.4492188,5.9921875 C70.1158837,5.9921875 69.8098972,6.12630074 69.53125,6.39453125 C69.2526028,6.66276176 69.016928,6.98176898 68.8242188,7.3515625 C68.6210927,7.73698109 68.4635422,8.1575498 68.3515625,8.61328125 C68.2395828,9.0690127 68.1835938,9.48958141 68.1835938,9.875 C68.1835938,10.3177105 68.2369786,10.6575509 68.34375,10.8945312 C68.4505214,11.1315116 68.6263009,11.25 68.8710938,11.25 C69.2252622,11.25 69.5429673,11.1276054 69.8242188,10.8828125 C70.1054702,10.6380196 70.3684884,10.2916689 70.6132812,9.84375 L71.5117188,7.203125 Z M86.5507812,12.203125 C86.7591156,12.4010427 86.9231765,12.6249987 87.0429688,12.875 C87.162761,13.1250013 87.2226562,13.434894 87.2226562,13.8046875 C87.2226562,14.174481 87.1419279,14.5221338 86.9804688,14.8476562 C86.8190096,15.1731787 86.5742204,15.455728 86.2460938,15.6953125 C85.8971337,15.9401054 85.4804712,16.1302077 84.9960938,16.265625 C84.5117163,16.4010423 83.912764,16.46875 83.1992188,16.46875 C82.0325462,16.46875 81.1601591,16.2981788 80.5820312,15.9570312 C80.0039034,15.6158837 79.7148438,15.1171908 79.7148438,14.4609375 C79.7148438,13.9296848 79.923175,13.5104182 80.3398438,13.203125 C80.7565125,12.8958318 81.2877572,12.7291668 81.9335938,12.703125 L81.9335938,12.59375 C81.777343,12.5468748 81.6158862,12.4882816 81.4492188,12.4179687 C81.2825512,12.3476559 81.1393235,12.2656255 81.0195312,12.171875 C80.8841139,12.0624995 80.77474,11.9335945 80.6914062,11.7851562 C80.6080725,11.636718 80.5664062,11.4531261 80.5664062,11.234375 C80.5664062,10.958332 80.6640615,10.7044282 80.859375,10.4726562 C81.0546885,10.2408843 81.3502584,10.0416675 81.7460938,9.875 L81.7460938,9.7578125 C81.2460913,9.52343633 80.8580743,9.22265809 80.5820312,8.85546875 C80.3059882,8.48827941 80.1679688,8.06250242 80.1679688,7.578125 C80.1679688,6.84895469 80.4401014,6.25000234 80.984375,5.78125 C81.5286486,5.31249766 82.2252562,5.078125 83.0742188,5.078125 C83.3085949,5.078125 83.5416655,5.10156227 83.7734375,5.1484375 C84.0052095,5.19531273 84.2408842,5.25520797 84.4804688,5.328125 L87.1679688,5.328125 L87.1679688,6.078125 L85.3554688,6.078125 L85.3554688,6.125 C85.548178,6.34895945 85.6914058,6.59635281 85.7851562,6.8671875 C85.8789067,7.13802219 85.9257812,7.40364453 85.9257812,7.6640625 C85.9257812,8.34114922 85.6510444,8.91406016 85.1015625,9.3828125 C84.5520806,9.85156484 83.9127641,10.0859375 83.1835938,10.0859375 L82.2382812,10.0859375 C82.118489,10.1276044 81.9934902,10.2031245 81.8632812,10.3125 C81.7330723,10.4218755 81.6679688,10.5703116 81.6679688,10.7578125 C81.6679688,10.9505218 81.7226557,11.0976557 81.8320312,11.1992188 C81.9414068,11.3007818 82.074218,11.3697915 82.2304688,11.40625 C82.3815112,11.4479169 82.5572907,11.4739583 82.7578125,11.484375 C82.9583343,11.4947917 83.1653635,11.5026041 83.3789062,11.5078125 C83.6080741,11.5130209 83.921873,11.5286457 84.3203125,11.5546875 C84.718752,11.5807293 85.0013012,11.5963541 85.1679688,11.6015625 C85.4075533,11.6119792 85.6484363,11.6692703 85.890625,11.7734375 C86.1328137,11.8776047 86.3528636,12.0208324 86.5507812,12.203125 Z M84.4414062,7.6328125 C84.4414062,7.02343445 84.3177096,6.53776223 84.0703125,6.17578125 C83.8229154,5.81380027 83.4752627,5.6328125 83.0273438,5.6328125 C82.7825509,5.6328125 82.5729175,5.68359324 82.3984375,5.78515625 C82.2239575,5.88671926 82.0820318,6.03124906 81.9726562,6.21875 C81.8684891,6.39062586 81.7942711,6.59765504 81.75,6.83984375 C81.7057289,7.08203246 81.6835938,7.33072789 81.6835938,7.5859375 C81.6835938,8.16406539 81.8098946,8.63541484 82.0625,9 C82.3151054,9.36458516 82.6419251,9.546875 83.0429688,9.546875 C83.4908877,9.546875 83.8359363,9.36588723 84.078125,9.00390625 C84.3203137,8.64192527 84.4414062,8.18489859 84.4414062,7.6328125 Z M85.9414062,14.09375 C85.9414062,13.8020819 85.8736986,13.5625009 85.7382812,13.375 C85.6028639,13.1874991 85.3971368,13.0598962 85.1210938,12.9921875 C84.9752597,12.9713541 84.6757835,12.9479168 84.2226562,12.921875 C83.769529,12.8958332 83.2434926,12.8828125 82.6445312,12.8828125 C82.0820284,12.992188 81.6822929,13.17578 81.4453125,13.4335937 C81.2083321,13.6914075 81.0898438,14.0234355 81.0898438,14.4296875 C81.0898438,14.6119801 81.1289059,14.7864575 81.2070312,14.953125 C81.2851566,15.1197925 81.420572,15.2734368 81.6132812,15.4140625 C81.7955738,15.5494798 82.040363,15.6601558 82.3476562,15.7460937 C82.6549495,15.8320317 83.0299457,15.875 83.4726562,15.875 C84.2382851,15.875 84.8411436,15.7278661 85.28125,15.4335937 C85.7213564,15.1393214 85.9414062,14.6927113 85.9414062,14.09375 Z M103.542969,13 L99.7851562,13 L99.7851562,12.484375 C99.9049485,12.4739583 100.026041,12.4635417 100.148438,12.453125 C100.270834,12.4427083 100.378906,12.4218752 100.472656,12.390625 C100.61849,12.3437498 100.726562,12.2617193 100.796875,12.1445312 C100.867188,12.0273432 100.902344,11.8750009 100.902344,11.6875 L100.902344,7.7109375 C100.902344,7.16926812 100.778647,6.75130355 100.53125,6.45703125 C100.283853,6.16275895 99.9752623,6.015625 99.6054688,6.015625 C99.3502591,6.015625 99.1106782,6.05468711 98.8867188,6.1328125 C98.6627593,6.21093789 98.4570322,6.3203118 98.2695312,6.4609375 C98.1184888,6.57552141 97.992188,6.69921809 97.890625,6.83203125 C97.789062,6.96484441 97.7122398,7.07552039 97.6601562,7.1640625 L97.6601562,11.609375 C97.6601562,11.7916676 97.6914059,11.9414057 97.7539062,12.0585938 C97.8164066,12.1757818 97.9231763,12.2656247 98.0742188,12.328125 C98.194011,12.3750002 98.3020829,12.4101561 98.3984375,12.4335938 C98.4947921,12.4570314 98.621093,12.4739583 98.7773438,12.484375 L98.7773438,13 L95.0976562,13 L95.0976562,12.484375 C95.2174485,12.4739583 95.3333328,12.4635417 95.4453125,12.453125 C95.5572922,12.4427083 95.6601558,12.4218752 95.7539062,12.390625 C95.8997403,12.3437498 96.0078121,12.2617193 96.078125,12.1445312 C96.1484379,12.0273432 96.1835938,11.8750009 96.1835938,11.6875 L96.1835938,7.7109375 C96.1835938,7.16926812 96.0598971,6.75130355 95.8125,6.45703125 C95.5651029,6.16275895 95.2565123,6.015625 94.8867188,6.015625 C94.6315091,6.015625 94.3919282,6.05598918 94.1679688,6.13671875 C93.9440093,6.21744832 93.7382822,6.3281243 93.5507812,6.46875 C93.3997388,6.58333391 93.2721359,6.71223887 93.1679688,6.85546875 C93.0638016,6.99869863 92.9856773,7.10677047 92.9335938,7.1796875 L92.9335938,11.59375 C92.9335938,11.7708342 92.9700517,11.9192702 93.0429688,12.0390625 C93.1158858,12.1588548 93.2252597,12.2499997 93.3710938,12.3125 C93.4804693,12.3645836 93.5924473,12.4036457 93.7070312,12.4296875 C93.8216152,12.4557293 93.949218,12.4739583 94.0898438,12.484375 L94.0898438,13 L90.3476562,13 L90.3476562,12.484375 C90.4674485,12.4739583 90.5911452,12.4635417 90.71875,12.453125 C90.8463548,12.4427083 90.9570308,12.4218752 91.0507812,12.390625 C91.1966153,12.3437498 91.3046871,12.2617193 91.375,12.1445312 C91.4453129,12.0273432 91.4804688,11.8750009 91.4804688,11.6875 L91.4804688,6.8984375 C91.4804688,6.73177 91.4427087,6.58203191 91.3671875,6.44921875 C91.2916663,6.31640559 91.1861986,6.20312547 91.0507812,6.109375 C90.9518224,6.04687469 90.8294278,5.99609395 90.6835938,5.95703125 C90.5377597,5.91796855 90.3867195,5.89322922 90.2304688,5.8828125 L90.2304688,5.375 L92.8085938,5.203125 L92.9179688,5.3125 L92.9179688,6.4140625 L92.9726562,6.4140625 C93.1028652,6.28385352 93.2617178,6.13020922 93.4492188,5.953125 C93.6367197,5.77604078 93.8111971,5.63281305 93.9726562,5.5234375 C94.1549488,5.39843687 94.3828111,5.29427125 94.65625,5.2109375 C94.9296889,5.12760375 95.2252588,5.0859375 95.5429688,5.0859375 C96.0429712,5.0859375 96.4726545,5.22005074 96.8320312,5.48828125 C97.191408,5.75651176 97.449218,6.08072727 97.6054688,6.4609375 C97.7929697,6.27864492 97.9583326,6.11849027 98.1015625,5.98046875 C98.2447924,5.84244723 98.4335926,5.69531328 98.6679688,5.5390625 C98.8658864,5.40364516 99.098957,5.29427125 99.3671875,5.2109375 C99.635418,5.12760375 99.9335921,5.0859375 100.261719,5.0859375 C100.912764,5.0859375 101.428384,5.29947703 101.808594,5.7265625 C102.188804,6.15364797 102.378906,6.80989141 102.378906,7.6953125 L102.378906,11.609375 C102.378906,11.7916676 102.410156,11.9414057 102.472656,12.0585938 C102.535157,12.1757818 102.641926,12.2656247 102.792969,12.328125 C102.912761,12.3750002 103.031249,12.4101561 103.148438,12.4335938 C103.265626,12.4570314 103.397135,12.4739583 103.542969,12.484375 L103.542969,13 Z M113.988281,12.859375 C113.743488,12.9479171 113.528647,13.019531 113.34375,13.0742187 C113.158853,13.1289065 112.94922,13.15625 112.714844,13.15625 C112.308592,13.15625 111.984376,13.0611989 111.742188,12.8710937 C111.499999,12.6809886 111.345052,12.4036477 111.277344,12.0390625 L111.230469,12.0390625 C110.891925,12.4140644 110.528648,12.7005198 110.140625,12.8984375 C109.752602,13.0963552 109.285159,13.1953125 108.738281,13.1953125 C108.160153,13.1953125 107.684898,13.0182309 107.3125,12.6640625 C106.940102,12.3098941 106.753906,11.846357 106.753906,11.2734375 C106.753906,10.976561 106.795573,10.7109387 106.878906,10.4765625 C106.96224,10.2421863 107.087239,10.0312509 107.253906,9.84375 C107.384115,9.68749922 107.555989,9.5481777 107.769531,9.42578125 C107.983074,9.3033848 108.183593,9.20572953 108.371094,9.1328125 C108.60547,9.04427039 109.080726,8.88020953 109.796875,8.640625 C110.513024,8.40104047 110.996093,8.21354234 111.246094,8.078125 L111.246094,7.3046875 C111.246094,7.23697883 111.231771,7.1067718 111.203125,6.9140625 C111.174479,6.7213532 111.113282,6.53906336 111.019531,6.3671875 C110.915364,6.1744782 110.76823,6.00651113 110.578125,5.86328125 C110.38802,5.72005137 110.118491,5.6484375 109.769531,5.6484375 C109.529947,5.6484375 109.307293,5.68880168 109.101563,5.76953125 C108.895832,5.85026082 108.751303,5.93489539 108.667969,6.0234375 C108.667969,6.12760469 108.692708,6.28124898 108.742188,6.484375 C108.791667,6.68750102 108.816406,6.87499914 108.816406,7.046875 C108.816406,7.22916758 108.734376,7.39583258 108.570313,7.546875 C108.406249,7.69791742 108.178387,7.7734375 107.886719,7.7734375 C107.626301,7.7734375 107.434896,7.68099051 107.3125,7.49609375 C107.190104,7.31119699 107.128906,7.10416781 107.128906,6.875 C107.128906,6.63541547 107.213541,6.40625109 107.382813,6.1875 C107.552084,5.96874891 107.772134,5.77343836 108.042969,5.6015625 C108.277345,5.45572844 108.561196,5.33203176 108.894531,5.23046875 C109.227866,5.12890574 109.553384,5.078125 109.871094,5.078125 C110.308596,5.078125 110.690103,5.10807262 111.015625,5.16796875 C111.341147,5.22786488 111.636717,5.35676984 111.902344,5.5546875 C112.16797,5.7473968 112.369791,6.00911293 112.507813,6.33984375 C112.645834,6.67057457 112.714844,7.09635156 112.714844,7.6171875 C112.714844,8.36198289 112.707031,9.02213254 112.691406,9.59765625 C112.675781,10.17318 112.667969,10.8020799 112.667969,11.484375 C112.667969,11.687501 112.703125,11.8489577 112.773438,11.96875 C112.84375,12.0885423 112.951822,12.1901037 113.097656,12.2734375 C113.175782,12.3203127 113.299478,12.3463541 113.46875,12.3515625 C113.638022,12.3567709 113.811197,12.359375 113.988281,12.359375 L113.988281,12.859375 Z M111.261719,8.734375 C110.819008,8.86458398 110.430991,8.99218687 110.097656,9.1171875 C109.764321,9.24218813 109.454429,9.39843656 109.167969,9.5859375 C108.907551,9.76302172 108.701824,9.97265504 108.550781,10.2148438 C108.399739,10.4570325 108.324219,10.74479 108.324219,11.078125 C108.324219,11.5104188 108.437499,11.828124 108.664063,12.03125 C108.890626,12.234376 109.178384,12.3359375 109.527344,12.3359375 C109.897137,12.3359375 110.222655,12.2460946 110.503906,12.0664062 C110.785158,11.8867179 111.022134,11.6744804 111.214844,11.4296875 L111.261719,8.734375 Z M120.746094,13 L117.019531,13 L117.019531,12.484375 C117.139324,12.4739583 117.26302,12.4635417 117.390625,12.453125 C117.51823,12.4427083 117.628906,12.4218752 117.722656,12.390625 C117.86849,12.3437498 117.976562,12.2617193 118.046875,12.1445312 C118.117188,12.0273432 118.152344,11.8750009 118.152344,11.6875 L118.152344,6.9296875 C118.152344,6.76302 118.114584,6.61067777 118.039063,6.47265625 C117.963541,6.33463473 117.858074,6.21875047 117.722656,6.125 C117.623697,6.06249969 117.48047,6.0091148 117.292969,5.96484375 C117.105468,5.9205727 116.933595,5.89322922 116.777344,5.8828125 L116.777344,5.375 L119.496094,5.203125 L119.605469,5.3125 L119.605469,11.59375 C119.605469,11.7760426 119.640625,11.9270827 119.710938,12.046875 C119.78125,12.1666673 119.891926,12.255208 120.042969,12.3125 C120.157553,12.3593752 120.269531,12.3971353 120.378906,12.4257812 C120.488282,12.4544272 120.610676,12.4739583 120.746094,12.484375 L120.746094,13 Z M119.761719,2.1640625 C119.761719,2.46093898 119.664063,2.72005098 119.46875,2.94140625 C119.273437,3.16276152 119.032554,3.2734375 118.746094,3.2734375 C118.480467,3.2734375 118.250001,3.1679698 118.054688,2.95703125 C117.859374,2.7460927 117.761719,2.50520969 117.761719,2.234375 C117.761719,1.94791523 117.859374,1.69791773 118.054688,1.484375 C118.250001,1.27083227 118.480467,1.1640625 118.746094,1.1640625 C119.04297,1.1640625 119.286457,1.26432191 119.476563,1.46484375 C119.666668,1.66536559 119.761719,1.89843617 119.761719,2.1640625 Z M127.550781,13 L123.792969,13 L123.792969,12.484375 C123.912761,12.4739583 124.040364,12.4622396 124.175781,12.4492187 C124.311199,12.4361979 124.423177,12.4166668 124.511719,12.390625 C124.657553,12.3437498 124.766927,12.2617193 124.839844,12.1445312 C124.912761,12.0273432 124.949219,11.8750009 124.949219,11.6875 L124.949219,2.765625 C124.949219,2.57812406 124.908855,2.40234457 124.828125,2.23828125 C124.747395,2.07421793 124.641928,1.94531297 124.511719,1.8515625 C124.417968,1.78906219 124.246095,1.73177109 123.996094,1.6796875 C123.746092,1.62760391 123.545574,1.59635422 123.394531,1.5859375 L123.394531,1.0859375 L126.292969,0.90625 L126.402344,1.0234375 L126.402344,11.59375 C126.402344,11.7760426 126.436198,11.9257807 126.503906,12.0429687 C126.571615,12.1601568 126.680989,12.2499997 126.832031,12.3125 C126.946615,12.3645836 127.059895,12.4036457 127.171875,12.4296875 C127.283855,12.4557293 127.410156,12.4739583 127.550781,12.484375 L127.550781,13 Z M133.449219,12.1015625 C133.449219,12.3932306 133.343751,12.6419261 133.132812,12.8476562 C132.921874,13.0533864 132.670574,13.15625 132.378906,13.15625 C132.087238,13.15625 131.835939,13.0533864 131.625,12.8476562 C131.414061,12.6419261 131.308594,12.3932306 131.308594,12.1015625 C131.308594,11.8098944 131.414061,11.5585948 131.625,11.3476562 C131.835939,11.1367177 132.087238,11.03125 132.378906,11.03125 C132.670574,11.03125 132.921874,11.1367177 133.132812,11.3476562 C133.343751,11.5585948 133.449219,11.8098944 133.449219,12.1015625 Z M140.894531,13.203125 C139.779942,13.203125 138.907555,12.833337 138.277344,12.09375 C137.647132,11.354163 137.332031,10.3619854 137.332031,9.1171875 C137.332031,8.57551812 137.416666,8.06901277 137.585938,7.59765625 C137.755209,7.12629973 138.0013,6.69791859 138.324219,6.3125 C138.631512,5.94270648 139.016925,5.64453238 139.480469,5.41796875 C139.944013,5.19140512 140.449216,5.078125 140.996094,5.078125 C141.751306,5.078125 142.365883,5.25911277 142.839844,5.62109375 C143.313804,5.98307473 143.550781,6.47655938 143.550781,7.1015625 C143.550781,7.36198047 143.488282,7.59244691 143.363281,7.79296875 C143.238281,7.99349059 143.032554,8.09375 142.746094,8.09375 C142.438801,8.09375 142.200522,8.01562578 142.03125,7.859375 C141.861978,7.70312422 141.777344,7.5286468 141.777344,7.3359375 C141.777344,7.10156133 141.808593,6.86067832 141.871094,6.61328125 C141.933594,6.36588418 141.970052,6.18489641 141.980469,6.0703125 C141.886718,5.90885336 141.747397,5.80078152 141.5625,5.74609375 C141.377603,5.69140598 141.178386,5.6640625 140.964844,5.6640625 C140.714843,5.6640625 140.476564,5.71744738 140.25,5.82421875 C140.023436,5.93099012 139.803386,6.12760273 139.589844,6.4140625 C139.397134,6.67448047 139.240886,7.02603945 139.121094,7.46875 C139.001301,7.91146055 138.941406,8.44010109 138.941406,9.0546875 C138.941406,10.0234423 139.156248,10.813799 139.585938,11.4257812 C140.015627,12.0377635 140.579424,12.34375 141.277344,12.34375 C141.782555,12.34375 142.205727,12.2213554 142.546875,11.9765625 C142.888023,11.7317696 143.204426,11.3645858 143.496094,10.875 L143.996094,11.203125 C143.652342,11.8177114 143.199222,12.3046857 142.636719,12.6640625 C142.074216,13.0234393 141.493493,13.203125 140.894531,13.203125 Z M154.355469,9.0703125 C154.355469,9.61198187 154.269532,10.1445286 154.097656,10.6679688 C153.92578,11.1914089 153.680991,11.6354148 153.363281,12 C153.003904,12.4166687 152.587242,12.7265615 152.113281,12.9296875 C151.639321,13.1328135 151.108076,13.234375 150.519531,13.234375 C150.029945,13.234375 149.563804,13.141928 149.121094,12.9570312 C148.678383,12.7721345 148.285158,12.5026059 147.941406,12.1484375 C147.602863,11.7994774 147.333334,11.3737004 147.132812,10.8710938 C146.932291,10.3684871 146.832031,9.80469062 146.832031,9.1796875 C146.832031,7.97655648 147.182288,6.99219133 147.882812,6.2265625 C148.583337,5.46093367 149.501296,5.078125 150.636719,5.078125 C151.714849,5.078125 152.604163,5.44140262 153.304688,6.16796875 C154.005212,6.89453488 154.355469,7.86197313 154.355469,9.0703125 Z M152.738281,9.0859375 C152.738281,8.69531055 152.699219,8.28255426 152.621094,7.84765625 C152.542968,7.41275824 152.425782,7.04427234 152.269531,6.7421875 C152.102864,6.41926922 151.884116,6.16015723 151.613281,5.96484375 C151.342447,5.76953027 151.011721,5.671875 150.621094,5.671875 C150.22005,5.671875 149.877606,5.77083234 149.59375,5.96875 C149.309894,6.16666766 149.079428,6.43749828 148.902344,6.78125 C148.735676,7.09895992 148.61849,7.46093547 148.550781,7.8671875 C148.483073,8.27343953 148.449219,8.66666477 148.449219,9.046875 C148.449219,9.5468775 148.489583,10.0091125 148.570312,10.4335938 C148.651042,10.858075 148.779947,11.2369775 148.957031,11.5703125 C149.134115,11.9036475 149.356769,12.1653636 149.625,12.3554688 C149.893231,12.5455739 150.225258,12.640625 150.621094,12.640625 C151.272139,12.640625 151.787759,12.325524 152.167969,11.6953125 C152.548179,11.065101 152.738281,10.195318 152.738281,9.0859375 Z M170.917969,13 L167.160156,13 L167.160156,12.484375 C167.279949,12.4739583 167.401041,12.4635417 167.523438,12.453125 C167.645834,12.4427083 167.753906,12.4218752 167.847656,12.390625 C167.99349,12.3437498 168.101562,12.2617193 168.171875,12.1445312 C168.242188,12.0273432 168.277344,11.8750009 168.277344,11.6875 L168.277344,7.7109375 C168.277344,7.16926812 168.153647,6.75130355 167.90625,6.45703125 C167.658853,6.16275895 167.350262,6.015625 166.980469,6.015625 C166.725259,6.015625 166.485678,6.05468711 166.261719,6.1328125 C166.037759,6.21093789 165.832032,6.3203118 165.644531,6.4609375 C165.493489,6.57552141 165.367188,6.69921809 165.265625,6.83203125 C165.164062,6.96484441 165.08724,7.07552039 165.035156,7.1640625 L165.035156,11.609375 C165.035156,11.7916676 165.066406,11.9414057 165.128906,12.0585938 C165.191407,12.1757818 165.298176,12.2656247 165.449219,12.328125 C165.569011,12.3750002 165.677083,12.4101561 165.773438,12.4335938 C165.869792,12.4570314 165.996093,12.4739583 166.152344,12.484375 L166.152344,13 L162.472656,13 L162.472656,12.484375 C162.592449,12.4739583 162.708333,12.4635417 162.820312,12.453125 C162.932292,12.4427083 163.035156,12.4218752 163.128906,12.390625 C163.27474,12.3437498 163.382812,12.2617193 163.453125,12.1445312 C163.523438,12.0273432 163.558594,11.8750009 163.558594,11.6875 L163.558594,7.7109375 C163.558594,7.16926812 163.434897,6.75130355 163.1875,6.45703125 C162.940103,6.16275895 162.631512,6.015625 162.261719,6.015625 C162.006509,6.015625 161.766928,6.05598918 161.542969,6.13671875 C161.319009,6.21744832 161.113282,6.3281243 160.925781,6.46875 C160.774739,6.58333391 160.647136,6.71223887 160.542969,6.85546875 C160.438802,6.99869863 160.360677,7.10677047 160.308594,7.1796875 L160.308594,11.59375 C160.308594,11.7708342 160.345052,11.9192702 160.417969,12.0390625 C160.490886,12.1588548 160.60026,12.2499997 160.746094,12.3125 C160.855469,12.3645836 160.967447,12.4036457 161.082031,12.4296875 C161.196615,12.4557293 161.324218,12.4739583 161.464844,12.484375 L161.464844,13 L157.722656,13 L157.722656,12.484375 C157.842449,12.4739583 157.966145,12.4635417 158.09375,12.453125 C158.221355,12.4427083 158.332031,12.4218752 158.425781,12.390625 C158.571615,12.3437498 158.679687,12.2617193 158.75,12.1445312 C158.820313,12.0273432 158.855469,11.8750009 158.855469,11.6875 L158.855469,6.8984375 C158.855469,6.73177 158.817709,6.58203191 158.742188,6.44921875 C158.666666,6.31640559 158.561199,6.20312547 158.425781,6.109375 C158.326822,6.04687469 158.204428,5.99609395 158.058594,5.95703125 C157.91276,5.91796855 157.76172,5.89322922 157.605469,5.8828125 L157.605469,5.375 L160.183594,5.203125 L160.292969,5.3125 L160.292969,6.4140625 L160.347656,6.4140625 C160.477865,6.28385352 160.636718,6.13020922 160.824219,5.953125 C161.01172,5.77604078 161.186197,5.63281305 161.347656,5.5234375 C161.529949,5.39843687 161.757811,5.29427125 162.03125,5.2109375 C162.304689,5.12760375 162.600259,5.0859375 162.917969,5.0859375 C163.417971,5.0859375 163.847654,5.22005074 164.207031,5.48828125 C164.566408,5.75651176 164.824218,6.08072727 164.980469,6.4609375 C165.16797,6.27864492 165.333333,6.11849027 165.476562,5.98046875 C165.619792,5.84244723 165.808593,5.69531328 166.042969,5.5390625 C166.240886,5.40364516 166.473957,5.29427125 166.742188,5.2109375 C167.010418,5.12760375 167.308592,5.0859375 167.636719,5.0859375 C168.287764,5.0859375 168.803384,5.29947703 169.183594,5.7265625 C169.563804,6.15364797 169.753906,6.80989141 169.753906,7.6953125 L169.753906,11.609375 C169.753906,11.7916676 169.785156,11.9414057 169.847656,12.0585938 C169.910157,12.1757818 170.016926,12.2656247 170.167969,12.328125 C170.287761,12.3750002 170.406249,12.4101561 170.523438,12.4335938 C170.640626,12.4570314 170.772135,12.4739583 170.917969,12.484375 L170.917969,13 Z" id="mail"></path>
        </g>
    </g>
</svg>