<?xml version="1.0" encoding="UTF-8"?>
<svg width="240px" height="175px" viewBox="0 0 240 175" version="1.1" xmlns="http://www.w3.org/2000/svg" xmlns:xlink="http://www.w3.org/1999/xlink">
    <!-- Generator: Sketch 47.1 (45422) - http://www.bohemiancoding.com/sketch -->
    <title>zkwsk_logo</title>
    <desc>Created with Sketch.</desc>
    <defs></defs>
    <g id="Main" stroke="none" stroke-width="1" fill="none" fill-rule="evenodd" fill-opacity="0.8">
        <g id="Mobile-Portrait" transform="translate(-39.000000, -187.000000)" fill-rule="nonzero" fill="#000">
            <g id="zkwsk_logo" transform="translate(39.000000, 187.000000)">
                <path d="M239.9984,174 L220.833823,174 C217.072925,168.230172 212.893527,162.5 208.29883,156.811069 C203.704132,151.121345 198.886982,145.602138 193.850579,140.253448 L192.575075,140.253448 L192.575075,164.274172 C192.575075,165.344862 192.779123,166.301345 193.188021,167.143621 C193.596919,167.98669 194.340296,168.667966 195.420554,169.185069 C195.943079,169.41269 196.916912,169.68869 198.339651,170.012276 C199.762391,170.336655 200.947474,170.515897 201.8957,170.547621 L201.8957,174 L173,174 L173,170.547621 C173.750579,170.482586 174.847641,170.385828 176.286385,170.255759 C177.725128,170.127276 178.738971,169.932172 179.327911,169.672828 C180.309746,169.25169 181.021115,168.627517 181.462821,167.801103 C181.903726,166.973103 182.123779,165.976966 182.123779,164.81031 L182.123779,115.016897 C182.123779,113.914483 181.935734,112.958 181.560444,112.147448 C181.184354,111.33769 180.439377,110.672276 179.327911,110.153586 C178.4445,109.732448 177.39785,109.360483 176.187961,109.03531 C174.977272,108.711724 173.913818,108.517414 173,108.451586 L173,105 L201.8957,105 L201.8957,108.452379 C200.978681,108.48569 199.835208,108.631621 198.46128,108.890172 C197.088152,109.15031 196.07431,109.393793 195.419754,109.619828 C194.306688,110.008448 193.555309,110.658 193.163215,111.56531 C192.770321,112.473414 192.575075,113.462414 192.575075,114.531517 L192.575075,138.358724 L193.556109,138.358724 C196.500012,135.895345 199.395103,133.32569 202.240583,130.651345 C205.085262,127.977 207.669079,125.310586 209.992034,122.652103 C212.575851,119.702552 214.464302,117.344655 215.658187,115.576828 C216.852072,113.810586 217.449015,112.245793 217.449015,110.884034 C217.449015,110.397069 217.146542,110.00131 216.540798,109.692793 C215.935053,109.385069 215.241287,109.132862 214.4563,108.939345 C213.540081,108.744241 212.723086,108.62369 212.004515,108.574517 C211.284343,108.525345 210.695402,108.48569 210.237693,108.452379 L210.237693,105 L236.337525,105 L236.337525,108.452379 C236.239902,108.452379 236.026251,108.469034 235.699773,108.501552 C235.373295,108.534862 234.997205,108.566586 234.573104,108.599103 C234.115395,108.632414 233.656885,108.697448 233.199176,108.794207 C232.741467,108.890966 232.153326,109.005172 231.434755,109.134448 C230.290481,109.395379 229.104598,109.807793 227.879506,110.374069 C226.654413,110.941931 225.649373,111.647 224.864386,112.490069 C221.497181,116.28269 217.985143,120.206966 214.328269,124.262103 C210.672196,128.317241 207.047331,132.013897 203.456073,135.355241 C208.432461,140.929172 212.549445,145.724276 215.808623,149.742138 C219.066201,153.760793 222.528628,158.053862 226.195903,162.622931 C227.595438,164.37331 228.996572,165.77631 230.396107,166.829552 C231.796441,167.882793 233.002329,168.669552 234.01137,169.187448 C234.857972,169.609379 235.915825,169.933759 237.185728,170.160586 C238.455631,170.388207 239.152598,170.518276 240,170.55 L240,174 L239.9984,174 Z" id="Shape"></path>
                <path d="M151.84821,143.24731 C153.264287,144.799414 154.309066,146.499034 154.985761,148.345379 C155.660849,150.191724 156,152.342621 156,154.794103 C156,160.628966 153.812394,165.440724 149.442004,169.227 C145.070007,173.014069 139.643587,174.907207 133.165959,174.907207 C130.177088,174.907207 127.188217,174.448793 124.20015,173.534345 C121.212083,172.61831 118.633891,171.507966 116.463162,170.204897 L114.435488,175 L110.660622,175 L110,150.976103 L113.821479,150.976103 C114.607474,153.768621 115.527683,156.291483 116.581302,158.541517 C117.634921,160.792345 119.026888,162.894069 120.757203,164.850655 C122.392683,166.682724 124.303021,168.139655 126.489019,169.227 C128.675018,170.314345 131.215438,170.856828 134.108671,170.856828 C136.278596,170.856828 138.173664,170.576862 139.793875,170.017724 C141.414085,169.458586 142.726488,168.665483 143.733494,167.64 C144.739696,166.613724 145.487115,165.409793 145.973339,164.025828 C146.461974,162.642655 146.70388,161.050103 146.70388,159.247379 C146.70388,156.605552 145.950032,154.142172 144.440729,151.858828 C142.929818,149.57469 140.68274,147.841759 137.693066,146.660034 C135.64771,145.857414 133.306602,144.968345 130.663312,143.995207 C128.022433,143.021276 125.741601,142.101276 123.823226,141.236 C120.04836,139.560172 117.114943,137.364862 115.023778,134.649276 C112.93181,131.934483 111.886227,128.388517 111.886227,124.013759 C111.886227,121.500414 112.405402,119.157586 113.442948,116.986069 C114.481297,114.813759 115.959257,112.873828 117.877632,111.167862 C119.701976,109.553897 121.856631,108.28969 124.340794,107.374448 C126.826563,106.459207 129.420026,106.000793 132.126002,106.000793 C135.209707,106.000793 137.96953,106.465552 140.407079,107.398241 C142.843825,108.329345 145.070007,109.415897 147.083215,110.65631 L149.01686,106 L152.792529,106 L153.16865,129.418759 L149.347974,129.418759 C148.656009,126.905414 147.87564,124.499138 147.013296,122.201517 C146.146933,119.905483 145.023394,117.825172 143.639464,115.962966 C142.286877,114.162621 140.635323,112.727103 138.686409,111.655621 C136.735084,110.584931 134.345755,110.050379 131.514405,110.050379 C128.524731,110.050379 125.977078,110.997345 123.870643,112.890483 C121.762601,114.784414 120.709786,117.09631 120.709786,119.827759 C120.709786,122.683724 121.385677,125.050345 122.73746,126.928414 C124.089243,128.806483 126.055838,130.350655 128.634834,131.560931 C130.93174,132.648276 133.189266,133.586517 135.405804,134.378828 C137.623146,135.169552 139.769764,136.015 141.846463,136.915172 C143.734298,137.723345 145.548194,138.637793 147.29619,139.662483 C149.04097,140.685586 150.55831,141.881586 151.84821,143.24731 Z" id="Shape"></path>
                <path d="M97.9984068,109.408759 C97.1946449,109.441276 96.2626317,109.624483 95.2015704,109.960759 C94.1405092,110.296241 93.1591072,110.738 92.2589576,111.281276 C91.1333724,111.986345 90.2252569,112.793724 89.5346111,113.707379 C88.8423722,114.618655 88.2401483,115.891586 87.7255495,117.523793 C85.4425153,124.917897 82.7898621,133.554 79.7675901,143.429724 C76.7461146,153.304655 73.4816784,163.828345 69.9774678,175 L65.5364644,175 L48.2599655,122.521138 L30.30238,175 L26.0429997,175 C22.859816,163.795828 19.5643127,152.168138 16.1564898,140.116931 C12.7486669,128.064138 10.4656327,119.989552 9.30738718,115.892379 C9.01822409,114.900207 8.59204708,114.019069 8.02965275,113.251345 C7.46646183,112.482034 6.70332618,111.778552 5.73865262,111.137724 C4.93489075,110.593655 3.99411497,110.186 2.91712186,109.913172 C1.84012876,109.641138 0.868285863,109.473793 0,109.408759 L0,106 L27.8966706,106 L27.8966706,109.408759 C25.4527247,109.536448 23.3712284,109.777552 21.6521817,110.128897 C19.9315418,110.481828 19.0728151,111.073483 19.0728151,111.904655 C19.0728151,112.225862 19.1206106,112.649379 19.2169983,113.178379 C19.3141826,113.706586 19.3930453,114.130897 19.4575693,114.450517 C20.1960105,117.267621 21.5040155,121.924724 23.3839739,128.422621 C25.2623391,134.92131 28.0496163,144.651103 31.7434159,157.613586 L48.8231565,106.960448 L53.5429672,106.960448 L70.7780433,158.693793 C73.1009071,150.743724 75.101151,143.792172 76.7779783,137.84469 C78.4556022,131.895621 79.8416732,126.806276 80.9393777,122.573483 C81.712869,119.592207 82.1964007,117.548379 82.3891761,116.443586 C82.5819515,115.338793 82.6783392,114.402931 82.6783392,113.634414 C82.6783392,112.546276 81.9311354,111.634207 80.4359312,110.897414 C78.9415236,110.160621 76.5222721,109.664931 73.1781766,109.408759 L73.1781766,106 L98,106 L98,109.408759 L97.9984068,109.408759 Z" id="Shape"></path>
                <path d="M240,93 L200.257462,93 C194.19465,84.4797415 188.730319,77.3586902 183.861287,71.6344421 C178.993051,65.9109953 172.763906,58.7234296 165.174646,50.0717449 L161.451644,50.0717449 L161.451644,79.3020336 C161.451644,80.87514 161.762026,82.2078328 162.382792,83.300112 C163.001966,84.3931926 164.244294,85.3099698 166.105795,86.0528479 C166.964521,86.4030504 168.241866,86.7524515 169.935442,87.1018526 C171.629814,87.4520551 173.312249,87.714106 174.983541,87.8880052 L174.983541,93 L121,93 L121,87.8880052 C122.288487,87.8006549 124.114175,87.6700302 126.477064,87.4945282 C128.839953,87.320629 130.497716,87.0585782 131.453536,86.7083757 C133.171784,86.0969237 134.363973,85.2450582 135.033285,84.152779 C135.701007,83.0613012 136.035265,81.6845325 136.035265,80.0240758 L136.035265,14.090642 C136.035265,12.5616114 135.749554,11.272193 135.176539,10.2239897 C134.603524,9.1757863 133.361993,8.23657044 131.453536,7.40554072 C129.973249,6.79408875 128.183374,6.29082292 126.083912,5.89814735 C123.982063,5.5046704 122.288487,5.24261956 121,5.11199483 L121,0 L176.773416,0 L176.773416,5.11199483 C175.293924,5.24342094 173.515191,5.4293408 171.439605,5.66895304 C169.364019,5.90936665 167.584491,6.24834985 166.105795,6.68510125 C164.244294,7.25327876 163.002762,8.15002154 162.382792,9.37212408 C161.762026,10.5958294 161.451644,11.9509608 161.451644,13.4359156 L161.451644,44.7634123 L164.458378,44.7634123 C168.182177,41.6612753 172.524354,37.9260491 177.488888,33.556131 C182.452627,29.1870142 186.295008,25.60405 189.016031,22.8072383 C192.83374,18.9189487 195.638328,15.8384489 197.428203,13.5665403 C199.218077,11.295433 200.112617,9.32884963 200.112617,7.66839293 C200.112617,6.92551486 199.253891,6.35733735 197.535643,5.96466178 C195.817395,5.57198621 193.191874,5.28749677 189.659876,5.11279621 L189.659876,0 L233.834523,0 L233.834523,5.11199483 C228.49355,5.63609651 224.011302,6.52081861 220.386985,7.76616114 C216.762668,9.01150366 213.163023,11.0982938 209.587253,14.0249289 C204.492199,18.2145368 200.2885,21.8463852 196.980137,24.9228781 C193.669386,27.999371 189.419529,31.937346 184.228972,36.7360017 C188.805925,41.8520034 194.312436,48.1163809 200.747708,55.5275312 C207.183775,62.939483 213.596763,70.1655149 219.985079,77.2040241 C221.604641,78.9959069 223.462164,80.710056 225.558442,82.3488755 C227.65472,83.9868936 229.965083,85.3091685 232.491122,86.3140974 C233.680923,86.795726 235.039445,87.1659629 236.5643,87.4280138 C238.087564,87.6900646 238.903314,87.8439293 239.999204,87.8872038 L239.999204,93 L240,93 Z" id="Shape"></path>
                <path d="M97,62.6589128 L97,94 L0.419008197,94 L0.419008197,90.0517623 L66.0339426,7.10836782 L35.0336967,7.10836782 C30.5001393,7.10836782 27.2323525,7.22917509 25.229541,7.46918954 C23.2251393,7.71000404 21.3415902,8.20203367 19.5765082,8.94527843 C17.5244016,9.64532058 15.2592131,11.4942319 12.7785574,14.4904123 C10.2971066,17.4881928 7.95002459,22.1996765 4.83648361,30.2001583 L0,30.2001583 L0,1 L97,1 L97,4.94823774 L31.5790656,88.0460415 L57.1242541,88.0460415 C65.1386803,88.0460415 70.5889672,87.7516238 73.4743197,87.1611882 C76.3596721,86.5715527 81.7686148,86.1059247 84.6006967,82.5057079 C87.9368607,78.2654525 89.8681148,74.6052321 91.6347869,62.6597128 L97,62.6597128 L97,62.6589128 Z" id="Shape"></path>
            </g>
        </g>
    </g>
</svg>